<mxfile host="app.diagrams.net" modified="2022-10-29T15:01:05.952Z" agent="5.0 (X11)" etag="LNSsI3P6NsvA65Mklnp-" version="20.5.1" type="github">
  <diagram id="ymXbCBO52tN5BZggkHDi" name="Page-1">
    <mxGraphModel dx="2801" dy="1049" grid="1" gridSize="10" guides="1" tooltips="1" connect="1" arrows="1" fold="1" page="1" pageScale="1" pageWidth="827" pageHeight="1169" math="0" shadow="0">
      <root>
        <mxCell id="0" />
        <mxCell id="1" parent="0" />
        <mxCell id="pkYR2LNBKtz41sRrEDZx-9" style="edgeStyle=orthogonalEdgeStyle;rounded=0;orthogonalLoop=1;jettySize=auto;html=1;exitX=0.5;exitY=1;exitDx=0;exitDy=0;" parent="1" source="3uaPRuTE406ViTXJRd5_-1" target="pkYR2LNBKtz41sRrEDZx-6" edge="1">
          <mxGeometry relative="1" as="geometry">
            <mxPoint x="-233" y="90" as="sourcePoint" />
          </mxGeometry>
        </mxCell>
        <mxCell id="pkYR2LNBKtz41sRrEDZx-10" style="edgeStyle=orthogonalEdgeStyle;rounded=0;orthogonalLoop=1;jettySize=auto;html=1;exitX=0.5;exitY=1;exitDx=0;exitDy=0;entryX=0.5;entryY=0;entryDx=0;entryDy=0;" parent="1" source="pkYR2LNBKtz41sRrEDZx-8" edge="1" target="pkYR2LNBKtz41sRrEDZx-6">
          <mxGeometry relative="1" as="geometry">
            <mxPoint x="-123" y="130" as="targetPoint" />
          </mxGeometry>
        </mxCell>
        <mxCell id="pkYR2LNBKtz41sRrEDZx-8" value="&lt;div&gt;Exchange 2&lt;/div&gt;" style="rounded=0;whiteSpace=wrap;html=1;" parent="1" vertex="1">
          <mxGeometry x="-203" y="70" width="120" height="60" as="geometry" />
        </mxCell>
        <mxCell id="pkYR2LNBKtz41sRrEDZx-14" style="edgeStyle=orthogonalEdgeStyle;rounded=0;orthogonalLoop=1;jettySize=auto;html=1;exitX=1;exitY=0.5;exitDx=0;exitDy=0;entryX=0;entryY=0.5;entryDx=0;entryDy=0;startArrow=none;" parent="1" source="3uaPRuTE406ViTXJRd5_-23" target="3uaPRuTE406ViTXJRd5_-11" edge="1">
          <mxGeometry relative="1" as="geometry" />
        </mxCell>
        <mxCell id="3uaPRuTE406ViTXJRd5_-15" style="edgeStyle=orthogonalEdgeStyle;rounded=0;orthogonalLoop=1;jettySize=auto;html=1;exitX=1;exitY=0.5;exitDx=0;exitDy=0;entryX=0;entryY=0.5;entryDx=0;entryDy=0;startArrow=none;" edge="1" parent="1" source="3uaPRuTE406ViTXJRd5_-16" target="3uaPRuTE406ViTXJRd5_-14">
          <mxGeometry relative="1" as="geometry" />
        </mxCell>
        <mxCell id="3uaPRuTE406ViTXJRd5_-1" value="&lt;meta charset=&quot;utf-8&quot;&gt;&lt;b id=&quot;docs-internal-guid-108841f1-7fff-6d10-0299-d6e058cb619e&quot; style=&quot;font-weight:normal;&quot;&gt;&lt;img style=&quot;border: 1px solid #595959;border-radius: 0.5px&quot; src=&quot;https://lh3.googleusercontent.com/UiDAajSgLHPuofcvvUGrIL8VJ3xd2-EOEjiBSpp_GUG1cadGzF4OtPeew9ifYkHCKTZgsnk5Totzt8I783ZSCTPO7BGD03oJTTu2hJlcpndUTWkJRl-A9wcV6Se4e7y0_UTQ0VehQWYR7SMUpXLYsH_ujzhuRx3dgcQUE9zujDGb7_G8gczlzQUrIjNr&quot; width=&quot;120px;&quot; height=&quot;66px;&quot;&gt;&lt;/b&gt;" style="text;whiteSpace=wrap;html=1;" vertex="1" parent="1">
          <mxGeometry x="-413" y="60" width="123" height="70" as="geometry" />
        </mxCell>
        <mxCell id="3uaPRuTE406ViTXJRd5_-11" value="&lt;div&gt;Prediction Contract&lt;br&gt;Has predicted price&lt;br&gt;&lt;/div&gt;" style="rounded=0;whiteSpace=wrap;html=1;" vertex="1" parent="1">
          <mxGeometry x="291.25" y="405" width="120" height="60" as="geometry" />
        </mxCell>
        <mxCell id="3uaPRuTE406ViTXJRd5_-59" style="edgeStyle=orthogonalEdgeStyle;rounded=0;orthogonalLoop=1;jettySize=auto;html=1;entryX=1;entryY=0.5;entryDx=0;entryDy=0;" edge="1" parent="1" source="3uaPRuTE406ViTXJRd5_-12" target="3uaPRuTE406ViTXJRd5_-36">
          <mxGeometry relative="1" as="geometry" />
        </mxCell>
        <mxCell id="3uaPRuTE406ViTXJRd5_-12" value="" style="aspect=fixed;perimeter=ellipsePerimeter;html=1;align=center;shadow=0;dashed=0;spacingTop=3;image;image=img/lib/active_directory/internet_globe.svg;" vertex="1" parent="1">
          <mxGeometry x="440" y="243.75" width="70" height="70" as="geometry" />
        </mxCell>
        <mxCell id="3uaPRuTE406ViTXJRd5_-14" value="" style="shape=image;imageAspect=0;aspect=fixed;verticalLabelPosition=bottom;verticalAlign=top;image=https://upload.wikimedia.org/wikipedia/commons/1/18/Ipfs-logo-1024-ice-text.png;" vertex="1" parent="1">
          <mxGeometry x="257" y="87.5" width="110" height="110" as="geometry" />
        </mxCell>
        <mxCell id="3uaPRuTE406ViTXJRd5_-16" value="Write Transformed Dataset" style="rounded=0;whiteSpace=wrap;html=1;" vertex="1" parent="1">
          <mxGeometry x="12" y="130" width="150" height="25" as="geometry" />
        </mxCell>
        <mxCell id="3uaPRuTE406ViTXJRd5_-17" value="" style="edgeStyle=orthogonalEdgeStyle;rounded=0;orthogonalLoop=1;jettySize=auto;html=1;exitX=1;exitY=0.5;exitDx=0;exitDy=0;entryX=0;entryY=0.5;entryDx=0;entryDy=0;endArrow=none;" edge="1" parent="1" source="pkYR2LNBKtz41sRrEDZx-12" target="3uaPRuTE406ViTXJRd5_-16">
          <mxGeometry relative="1" as="geometry">
            <mxPoint x="-63" y="615" as="sourcePoint" />
            <mxPoint x="217" y="530" as="targetPoint" />
          </mxGeometry>
        </mxCell>
        <mxCell id="3uaPRuTE406ViTXJRd5_-18" value="Train prediction model" style="rounded=0;whiteSpace=wrap;html=1;" vertex="1" parent="1">
          <mxGeometry x="67" y="202.5" width="150" height="25" as="geometry" />
        </mxCell>
        <mxCell id="3uaPRuTE406ViTXJRd5_-19" value="" style="edgeStyle=orthogonalEdgeStyle;rounded=0;orthogonalLoop=1;jettySize=auto;html=1;exitX=1;exitY=0.5;exitDx=0;exitDy=0;entryX=0;entryY=0.5;entryDx=0;entryDy=0;endArrow=none;" edge="1" parent="1" source="pkYR2LNBKtz41sRrEDZx-12" target="3uaPRuTE406ViTXJRd5_-18">
          <mxGeometry relative="1" as="geometry">
            <mxPoint x="-63" y="615" as="sourcePoint" />
            <mxPoint x="247" y="690" as="targetPoint" />
          </mxGeometry>
        </mxCell>
        <mxCell id="3uaPRuTE406ViTXJRd5_-21" value="Share Improved Model with peers" style="rounded=0;whiteSpace=wrap;html=1;" vertex="1" parent="1">
          <mxGeometry x="87" y="337.5" width="150" height="50" as="geometry" />
        </mxCell>
        <mxCell id="3uaPRuTE406ViTXJRd5_-22" value="" style="edgeStyle=orthogonalEdgeStyle;rounded=0;orthogonalLoop=1;jettySize=auto;html=1;exitX=1;exitY=0.5;exitDx=0;exitDy=0;entryX=0;entryY=0.5;entryDx=0;entryDy=0;startArrow=none;endArrow=none;" edge="1" parent="1" source="3uaPRuTE406ViTXJRd5_-18" target="3uaPRuTE406ViTXJRd5_-21">
          <mxGeometry relative="1" as="geometry">
            <mxPoint x="167" y="667.5" as="sourcePoint" />
            <mxPoint x="107" y="900" as="targetPoint" />
          </mxGeometry>
        </mxCell>
        <mxCell id="3uaPRuTE406ViTXJRd5_-54" style="edgeStyle=orthogonalEdgeStyle;rounded=0;orthogonalLoop=1;jettySize=auto;html=1;exitX=0;exitY=0.5;exitDx=0;exitDy=0;startArrow=none;" edge="1" parent="1" source="3uaPRuTE406ViTXJRd5_-55" target="3uaPRuTE406ViTXJRd5_-53">
          <mxGeometry relative="1" as="geometry" />
        </mxCell>
        <mxCell id="3uaPRuTE406ViTXJRd5_-23" value="Make prediction" style="rounded=0;whiteSpace=wrap;html=1;" vertex="1" parent="1">
          <mxGeometry x="-83" y="420" width="150" height="20" as="geometry" />
        </mxCell>
        <mxCell id="3uaPRuTE406ViTXJRd5_-24" value="" style="edgeStyle=orthogonalEdgeStyle;rounded=0;orthogonalLoop=1;jettySize=auto;html=1;exitX=1;exitY=0.5;exitDx=0;exitDy=0;entryX=0.5;entryY=0;entryDx=0;entryDy=0;startArrow=none;endArrow=none;" edge="1" parent="1" source="3uaPRuTE406ViTXJRd5_-21" target="3uaPRuTE406ViTXJRd5_-23">
          <mxGeometry relative="1" as="geometry">
            <mxPoint x="247" y="755" as="sourcePoint" />
            <mxPoint x="107" y="900" as="targetPoint" />
          </mxGeometry>
        </mxCell>
        <mxCell id="3uaPRuTE406ViTXJRd5_-3" style="edgeStyle=orthogonalEdgeStyle;rounded=0;orthogonalLoop=1;jettySize=auto;html=1;exitX=0.5;exitY=1;exitDx=0;exitDy=0;startArrow=none;" edge="1" parent="1" source="pkYR2LNBKtz41sRrEDZx-5" target="pkYR2LNBKtz41sRrEDZx-12">
          <mxGeometry relative="1" as="geometry" />
        </mxCell>
        <mxCell id="pkYR2LNBKtz41sRrEDZx-5" value="OHLCV Interface Contract" style="rounded=0;whiteSpace=wrap;html=1;" parent="1" vertex="1">
          <mxGeometry x="-375.5" y="295" width="145" height="40" as="geometry" />
        </mxCell>
        <mxCell id="3uaPRuTE406ViTXJRd5_-27" value="" style="edgeStyle=orthogonalEdgeStyle;rounded=0;orthogonalLoop=1;jettySize=auto;html=1;exitX=0.5;exitY=1;exitDx=0;exitDy=0;startArrow=none;endArrow=none;" edge="1" parent="1" source="pkYR2LNBKtz41sRrEDZx-6" target="pkYR2LNBKtz41sRrEDZx-5">
          <mxGeometry relative="1" as="geometry">
            <mxPoint x="-123" y="200" as="sourcePoint" />
            <mxPoint x="-123" y="584.9999999999998" as="targetPoint" />
          </mxGeometry>
        </mxCell>
        <mxCell id="3uaPRuTE406ViTXJRd5_-31" style="edgeStyle=orthogonalEdgeStyle;rounded=0;orthogonalLoop=1;jettySize=auto;html=1;entryX=0.5;entryY=0;entryDx=0;entryDy=0;exitX=0.25;exitY=1;exitDx=0;exitDy=0;" edge="1" parent="1" source="3uaPRuTE406ViTXJRd5_-46" target="3uaPRuTE406ViTXJRd5_-12">
          <mxGeometry relative="1" as="geometry">
            <mxPoint x="475" y="149" as="sourcePoint" />
          </mxGeometry>
        </mxCell>
        <mxCell id="3uaPRuTE406ViTXJRd5_-33" value="" style="group" vertex="1" connectable="0" parent="1">
          <mxGeometry x="-383" y="177" width="390" height="76" as="geometry" />
        </mxCell>
        <mxCell id="pkYR2LNBKtz41sRrEDZx-6" value="&lt;div&gt;Custom IExec Oracle&lt;br&gt;&lt;/div&gt;" style="rounded=0;whiteSpace=wrap;html=1;" parent="3uaPRuTE406ViTXJRd5_-33" vertex="1">
          <mxGeometry y="13" width="160" height="50" as="geometry" />
        </mxCell>
        <mxCell id="3uaPRuTE406ViTXJRd5_-25" value="" style="shape=image;imageAspect=0;aspect=fixed;verticalLabelPosition=bottom;verticalAlign=top;image=https://iex.ec/wp-content/uploads/2022/05/Logo-iExec.svg;" vertex="1" parent="3uaPRuTE406ViTXJRd5_-33">
          <mxGeometry x="170" width="220" height="76" as="geometry" />
        </mxCell>
        <mxCell id="3uaPRuTE406ViTXJRd5_-35" value="" style="group" vertex="1" connectable="0" parent="1">
          <mxGeometry x="-173" y="240" width="120" height="147.5" as="geometry" />
        </mxCell>
        <mxCell id="pkYR2LNBKtz41sRrEDZx-12" value="AGENT SERVICE" style="rounded=0;whiteSpace=wrap;html=1;" parent="3uaPRuTE406ViTXJRd5_-35" vertex="1">
          <mxGeometry y="87.5" width="120" height="60" as="geometry" />
        </mxCell>
        <mxCell id="3uaPRuTE406ViTXJRd5_-2" value="&lt;meta charset=&quot;utf-8&quot;&gt;&lt;b id=&quot;docs-internal-guid-3c4dc3ea-7fff-8a79-9f6a-f9bbb71822db&quot; style=&quot;font-weight:normal;&quot;&gt;&lt;img src=&quot;https://lh6.googleusercontent.com/q4ZoT2SOi6gXYnLmjmi89UBZCg3m3WoSTLziXTE8wz7OIeUKoNHEy1VsemZVXnjvaiDq2e74NGupYiS68lvWYR4vIpgmTsitqW2xPojwFMdF6rSRZP4Dv_YPD7BuDmf9q3_qbwNHd4_nwL87-7NOl4y0ymoTTqD2Ar893NLwUYSbOcqIRcJ3RBf5G_dm&quot; width=&quot;57px;&quot; height=&quot;62px;&quot;&gt;&lt;/b&gt;" style="text;whiteSpace=wrap;html=1;" vertex="1" parent="3uaPRuTE406ViTXJRd5_-35">
          <mxGeometry x="43" width="60" height="70" as="geometry" />
        </mxCell>
        <mxCell id="3uaPRuTE406ViTXJRd5_-39" style="edgeStyle=orthogonalEdgeStyle;rounded=0;orthogonalLoop=1;jettySize=auto;html=1;exitX=0.5;exitY=1;exitDx=0;exitDy=0;entryX=0.5;entryY=0;entryDx=0;entryDy=0;" edge="1" parent="1" source="3uaPRuTE406ViTXJRd5_-36" target="3uaPRuTE406ViTXJRd5_-11">
          <mxGeometry relative="1" as="geometry" />
        </mxCell>
        <mxCell id="3uaPRuTE406ViTXJRd5_-36" value="" style="shape=image;imageAspect=0;aspect=fixed;verticalLabelPosition=bottom;verticalAlign=top;image=data:image/png,iVBORw0KGgoAAAANSUhEUgAAAOEAAADhCAMAAAAJbSJIAAAAilBMVEX///8iIyYAAAC7u7wdHiEXGBwAAAsLDRIAAAURExcVFhobHB8AAAf4+PgbHCAAAwvx8fHo6Ojt7e2bm5zf3+CFhYaurq+RkZK/v8Byc3RiY2Spqqo+P0GhoaIlJinU1NRJSkx8fH3IyMlWVlg3ODpFRkhqa2yIiIksLTBaWlyTk5ROT1HZ2dkyMzVFMm6fAAAOO0lEQVR4nOVdeUO6TBCOAeMWDCUlDfHIzPr+X+9Fq1/qzC7LHuBbz58dwuPuzj2zd3eGMSrzbFIsn61rPG+LKstXI9MvYBCjafbyCuC5fhA6iKBlOWHgux7A60s2/f/xLLPChcgdUMwQ04EbwX2RlX2/tDDK7ADghgLczjF0AQ7/A5axPYvasztj6c3suG8SbMT5Hu4DSXbfCO5hn98myWkBieziXSJMoJj2Teca4wl4Ay30vkh6MBn3TeoM9hZ8jfQ+4cPW7pvYJ+LM90SUQns4npv1fyLTCbhG6H3ChUnaK7+HysD2vIQP1UNv/FLz/I4IoOppHR874XeED4898MsTk+fvGm6Sd8yv3Hgd8jvC23Rps8YzaKkfTp5SkkTeEVGSsDwq3kfArDPVYbc4gE5Qu0YA86J6XOT2dHXE1M4Xj1Uxr38euYE4UR+6MQHSNYiSSwA21WI6Zn338Xi6qGqiiShNWHcgVW0Qsj9rds9V/i70ke959SzolAzAtMSJC4EFdFwIKrudnn6wqwG4AksJhdHTWAaN33RNb56Jrd01xtlcgGQQGBSqWaMI9WGzUIkqjRabRjHmQKaN0RXWDTpwGCU7daduvHO9If9B3trITh1b/B0awFKXMLeX0PAsx4B7POXvUB9mcoePxnjG36wOaA9zZFwZ6sNOt6JKd3yOug/jjEew5mfiXMR8jjDT+bA1x48YmHPfageUY164a20Piufs79KBwmTOYVRwjr8/17R10lf2F5l8rPQ8hInyI2Fvn1ctuye1mHHeoTnde4YFMF8gdDRQTIfMz4dDNzGiB7Y3E4bKr5AOWfZFaNzM/0EOrLcYhoqryN6i0bLLIF+6jMxs1PiVQdCBN10vLwim1R++qkjUOUOKDtzuU5mly3qZufyHrhl6MDn0kU6IDwy94Uur/hnDkoGJzhdvgQlDprqSBhzL2O5Qhl4jZ72SlF6e0p/mQJ/VBCVD3sg4U2Oa4HDQb+nLaEBrRmjvEjvkl6XJElQAw0p2nLbCb02GEYJN/znZeEO/WkuBmpFBp0BB82jEnKTotZI2JXkIb4Qgi2IbERiTeYTBxtw7t8SGOotOIH6ECuo7GirZf3oRv1ISNShE/9+m9qgz6FuKniMlqx5Fs28peQjhtkpAR/RLiq3CmtrkvVoyFEhhOBBSGeQe7dEWZYG0UUX2aUz9Y9KXN8HDhHKmoFkczgifcHDo4IXb40AcJ7/RkaK2t+Pejp44R0ylUxsFxkbmn/oCuRwNdklO2KNRF2FfOWREBM7jC0Xi8IbLbt5WCksiFpjw/uGRiMxAf8WPzaCsE5dT5kf9/Q1qwnNQWpFj2VRYU4S3qSh+sMb71K9Yf/xAfR+3vEePaPXSFXaakkWnryuDBZaOAWMRiVPofHT7tlJ4xSqccRIn+BSC6QyvDqzwyvikHU2Y3ANhp7kF0ofRaPSg050usH1KGuAZ1oV6vd4y3xWbBL7hbmeLlRaihDfsUnYYJsiWuq3xni0BEv+i8tkJXA82jxqMXkLLufivbGyRCsYEGvHwZjF7Eh0fgp1qvRghIz3sCm+RRPJ3ig/+xPtLU9GoDx9Pas/YoUV0ttd/QyRiBNzlZowKkappJ4FHlacRUhKlarCq0LKEO7GqcOvYw6WyjngRkcIgvgT1U1habfpqvLm86CZOIlz+xRTJmUC99O+tZd9JqNBPMUMWp3eZNC2QqJNIOV6haN84BNIn4x0tYnhhruCTOlyqEtzKdH6BtApeokzGhaTMkX0eqdZsb+Va96RX0UYhm4t2tz3apNxghwD2sr170jEFtEjh/ueXeJOqqoo3+eY9WWMYK4yzbWrfo1+qyRk6hyyGoWSmGdss9z8nDYnaprBqEwinVByy+xQFs88UHtpSrlrw4olVKukc59GckHBaRgi/QAQLdPS971/hPaXoGDKkTAjLbDVO4zgelXk1YBp093KLiN3Ef+kI5Ps6akUXWHCfEK0vD3f5wqj8lX38/Hqb/vODD9cPIj1kcRAhzOMXimtuxwda5ErKObRSw+9gL15dJZeUzLFaERlrX5B/68u132PL7cv6xsdwIM3uCCL2VZ9BRoadLL5ynuWejKTX10FEi8sKqAoCyzSLs/HILS25TVFI++u4Ib8iUbNJidA5J/1Blo24ct6wfW25ffkXyKBTzFVQq8JRsES00xq8SD0Z5zBO5jX6EmVPwTc2hA7w2DW8U2Qy1hjKPfr5Wl+cFPv0WnspHsM7HyIETnqALMGSjIKhAxIdv1kkaLoeI9JKMPGB/NyTqHm5Pgdq2rA9kCliSaeEkEY8HWjkB0DjB+nFgZBMkWQjM5Ipr9QPu64EpmTvvaTCQvsBCFGqKmhaQydD5OnWwnR1bTYp+obtoZMhsqe81V1+/bOo67yvToZI9bn5XXYdwFEPBXMRp6PR+ByjJSFLZRmiYI2fYSWpJeWEMVotJsV2ABhUTEeWIfLcggm2u/Uri3j1uDzNExYauqvEEGmG2va+3iO6lUX6tAbPbzvYVJrhtbpwlnfXY6hDrfUXZQFuw7AZvQzRlny+u/5sneqw3AonSHUxxM4pYigZIyGQ7tvOrdPA8BHF9hFDbQpfcOyZZoY4hIIY6vKduBNtzDHEeULMUMuwp/RDbTKmNEMUqsEMZf2WCzwEinOvpRkisw0z9DSYpTF7HopphsiRMMOQNWyiRhi4l6CT4TfOcMeaCuSDu6/eFounM7yRFG+bIU4fnOB4wSMRAaIbCW+b4ZY009wPWoTRkw1MMlSWpWRihl1FopmhgCxV1ocoG3kiyLSUNDMU0IeqNg15rjgFa5oZCtg0qnYpUS7Ora7QzFDALlX1LYioy5DXf6yZoYBvoegfUilurvDSzJDwDzX7+FQ1FDfyo5kh4eNrjtPgk95QYKWZIRGn0Rxre8OCZrjn/YNmhkSsTXO8lEjiD7n7Xi9DKl6qOeaNspFNJ1svQyrmjfMWSmYbUXcw5Lah0na6zryF5twTsYaWz/n71CLjcTpzT5rzh1QxDafSkTUdVWf+UHMOGNsU9Roy52TGISPcoTMHrDmPj4716RNZ7Td7Vh2tLEMyj6+3FoOs8GaMZRizZ0xLMqRrMTTX05Ci0SUUxviFE/SXZIh20KmeRnNNFFU7Uh/Fj6tW0dWeG/SXZEjXRGmua3uig90OzBfv39bS+M1iT7A+QTLSQNe1aa5NpCuErdPlJQCb+Xz+DM03kcidFEZtou76UqLt+IzmEQ3sjpArMGXVl2quEabHvbWEXC09q0YYC/hAhSE1m6E15PquWHXe3dTqt4NUkTCzVl97vwVrnnELnGyRtmD3W+jumbnbt9mnQ1LyyPRZs3tmtPc93X2I33uc7NcURQkvldP3pL137S7eiCa5oaIlk4SowcHg6N/vtPcfHgsVhK5VP4b7carBkpr9w+s/1N5DWmPlNy9jeHoMYxRpW8OK20Oqvw/4iKabWGtT9ZMFybC13cbtAzbQy31EWnFuQw7h4/srxvMQrIZkBwVuL7eJfvxPjm+uRzkRtRVe/OSa6Qn+LeV5Qz++iZkK369fQORfyIBBAtuni7CzBx5GS8OqYaYCNRdDW19JPJ0cL1X17u/vo2Oj80tuYOgyttiuxngZmW1yjlG5mtr2dFUaGindONvEzHya7tA8n8bUjKGuIDBjyNScqG4gMifK3KyvLoCXMESzvkzOazMOsXltZmfumYXYzD3zcxONQXRuYlezL/VDdPbl759fSs6glQkIdQ3xGbTkHOHbncf+jQyHCJgi8vfPgqakLr+Q4gZAlLNytNzvn8n+/5urT+1R3lz9P3A3An2/RdeXqorjrf39Fr//jpI/cM/M778r6A/c9/T77+z6A/eu/YG7837//Yd/4A7LP3AP6e+/S/YP3Af8B+50vrujuwRu915uq/Un/f671RnZdcvp1bopGWU6INXokzEK8Hq0UVk1gSAZ9JwxakWgL09jwiDoSmfk14ySn+TQh0iND4xpFH5rMfoD1giPgdv9YSxd1suoaGna/rOO8qbr8FTGKgUM1ezl1GL1RUTLLuOo6ZJ1GUHoKGrodMgatxZ2KFNzZgPKMFQ2QVJWA10tUw/dLOPDmlk4Hg41vEJqMYfmDWX1UCss2B1EoaXFiGRYgickH6azxKtX1sQijVZyzO4TrIVqYdJQHRWcamp/rk8trzkVzQOoTPkbacVr4XMVFD0Gd4KeDzsTNk6845ZRg97iSaYZ/o+j7nVM+fykjW02pvz2Ah9mOke5v8/4/Bw5d4mPscVvhAlgqaU2vIa9hIZnOWbGOa8brhobRslO/cnjXRI1jK31tMqYczCt33/wYbNQ0R6jxaahS+O4Qw3aGWXQ2LLluLDJ5I7kOJs3dwhbQWDUc4sLgd7CmmRQ2e0Mxge7GgjQq2VoYdr7FhyeGyTwXOVia/meV8/ci9h+MFC4qlQYKdvSv4RTs4TNbDEds771eDxdzObHa+YERyrDuptwrd0oDM5puhEAzIvqcZHb09URUztfPFbFsc0kckXJWUcx1sECfiIW6y48JxoGvpsk0anfJ0oS1w/Cth8Bsy7jX+VG/hpOOXibroNfeaI27bkd3K4vMDqhqYNSH3zQNii+HdJJJxwDcw5oMx4q4xx9qPot/6zX0eR5dGHSd8KyVh2Z76lcjsuG47lZ/znnE+ytgc3qw7YzBS+A8cTzFC57QAg9mJi9s0gC0wIS1XH6X/QSKAwEKTQgzvdwLz7zg0ZwD/v8Rk4fhdieReDKLuXQBW9m3zC9L5TZAdqzDF2AQ3ZrNZ5slFnh1q6R0BVWzqB2sJLif8TuG6NV9vJ6uquL9pROHpUH8PqSTW+reLUdRmWeTYrl9VBty3peFlWWr4xz+w9rJuQuhS1xKgAAAABJRU5ErkJggg==;" vertex="1" parent="1">
          <mxGeometry x="300" y="227.5" width="102.5" height="102.5" as="geometry" />
        </mxCell>
        <mxCell id="3uaPRuTE406ViTXJRd5_-45" value="" style="shape=actor;whiteSpace=wrap;html=1;" vertex="1" parent="1">
          <mxGeometry x="455" y="70" width="40" height="60" as="geometry" />
        </mxCell>
        <mxCell id="3uaPRuTE406ViTXJRd5_-47" value="" style="group" vertex="1" connectable="0" parent="1">
          <mxGeometry x="440" y="90" width="70" height="60" as="geometry" />
        </mxCell>
        <mxCell id="3uaPRuTE406ViTXJRd5_-44" value="" style="shape=actor;whiteSpace=wrap;html=1;" vertex="1" parent="3uaPRuTE406ViTXJRd5_-47">
          <mxGeometry width="40" height="60" as="geometry" />
        </mxCell>
        <mxCell id="3uaPRuTE406ViTXJRd5_-46" value="" style="shape=actor;whiteSpace=wrap;html=1;" vertex="1" parent="3uaPRuTE406ViTXJRd5_-47">
          <mxGeometry x="30" width="40" height="60" as="geometry" />
        </mxCell>
        <mxCell id="3uaPRuTE406ViTXJRd5_-50" value="Users" style="text;html=1;strokeColor=none;fillColor=none;align=center;verticalAlign=middle;whiteSpace=wrap;rounded=0;" vertex="1" parent="1">
          <mxGeometry x="380" y="60" width="60" height="30" as="geometry" />
        </mxCell>
        <mxCell id="3uaPRuTE406ViTXJRd5_-52" value="&lt;meta charset=&quot;utf-8&quot;&gt;&lt;b id=&quot;docs-internal-guid-8c2cb0ae-7fff-dc2f-7ad8-b97995facdd8&quot; style=&quot;font-weight:normal;&quot;&gt;&lt;img src=&quot;https://lh6.googleusercontent.com/8ddYPxGHsOQuh8xhWQgwap9JLfBW_oAz8cIpD0aS79lgEseBQpEUiGMUoj_RomQWiF5Zh9A2OlNh8i7pL48VtyqtZ5q-TMsMBUmbBuVStippxYy8vkMDKTEsZ9kVJ8REla3wv56ZTcRppOJL1Lzr2_NBsLVLMQ_lRfN5_YWc4loggz5sifSpClaxkqNB&quot; width=&quot;226px;&quot; height=&quot;42px;&quot;&gt;&lt;/b&gt;" style="text;whiteSpace=wrap;html=1;" vertex="1" parent="1">
          <mxGeometry x="-250" y="469" width="220" height="50" as="geometry" />
        </mxCell>
        <mxCell id="3uaPRuTE406ViTXJRd5_-53" value="" style="sketch=0;outlineConnect=0;fontColor=#232F3E;gradientColor=none;fillColor=#3F8624;strokeColor=none;dashed=0;verticalLabelPosition=bottom;verticalAlign=top;align=center;html=1;fontSize=12;fontStyle=0;aspect=fixed;pointerEvents=1;shape=mxgraph.aws4.bank;" vertex="1" parent="1">
          <mxGeometry x="-350" y="391" width="78" height="78" as="geometry" />
        </mxCell>
        <mxCell id="3uaPRuTE406ViTXJRd5_-55" value="Update Cellar" style="text;html=1;strokeColor=none;fillColor=none;align=center;verticalAlign=middle;whiteSpace=wrap;rounded=0;" vertex="1" parent="1">
          <mxGeometry x="-173" y="420" width="60" height="30" as="geometry" />
        </mxCell>
        <mxCell id="3uaPRuTE406ViTXJRd5_-56" value="" style="edgeStyle=orthogonalEdgeStyle;rounded=0;orthogonalLoop=1;jettySize=auto;html=1;exitX=0.5;exitY=1;exitDx=0;exitDy=0;endArrow=none;" edge="1" parent="1" source="3uaPRuTE406ViTXJRd5_-23" target="3uaPRuTE406ViTXJRd5_-55">
          <mxGeometry relative="1" as="geometry">
            <mxPoint x="67" y="440" as="sourcePoint" />
            <mxPoint x="-264.00088567924786" y="449" as="targetPoint" />
          </mxGeometry>
        </mxCell>
        <mxCell id="3uaPRuTE406ViTXJRd5_-60" value="" style="shape=image;verticalLabelPosition=bottom;labelBackgroundColor=default;verticalAlign=top;aspect=fixed;imageAspect=0;image=data:image/png,iVBORw0KGgoAAAANSUhEUgAAAgAAAACPCAYAAACMAWPeAAAABHNCSVQICAgIfAhkiAAAABl0RVh0U29mdHdhcmUAZ25vbWUtc2NyZWVuc2hvdO8Dvz4AAAAqdEVYdENyZWF0aW9uIFRpbWUAU2F0IDI5IE9jdCAyMDIyIDE1OjU4OjQyIEJTVJbWFWwAACAASURBVHic7d15XM3Z/wfw161QabdNC5UIY00aDFHZB2Ufu7KWtWwZRJaxZKlshR+VdWyjsq9FDKYiY5kMcVHZK0Ub6vdH32swLffzuZ/l3no/H48ej5m6n3OOuvdz3p+zvI+ksLCwEOXU1ZuPMWjsCphZN0LQggFo3sBE7CYRQgghSkFSHgOANxnZ6OcegJhjx1D46SNg1Q5qahoY3dcOy6f9hOqGVcVuIiGEECKqchUAFBYWYuqSfQheH4KP2W///UHdHwGJOgBAX0cTPhM6Y9owe2hoqInUUkIIIURc5SYA2HfiOsZP8UPms8f//WHdtp8DABlr8+rwn+2Mn+wbCdRCQgghRHmofACQ+PAF+o9bjb///AMl/lMs2/wnAJDp1Loegub3R33z6jy2khBCCFEuKhsAvMvOw/DpW3Bk32EUfMgr/cWWrUsMAACgkoYaJg9ph0UTu0G3ahWOW0oIIYQoH5UMABZtPIaVK7YiJ+O1fBdY/FBqACBTw7Aqlk7pjrH9WkNNTaJgKwkhhBDlpVIBwNkr/2DYhOV4+egBswst7OQKAGQaW9XC5gUD0M7Gglk9hBBCiIpQiQDgSWoGBk0MxJ9RUSgsLGBegHkrRgGAzKCuzbFmVm+Y1dJnXichhBCixJQ6APjw4RMmLNiFndv24mNeDvuC6tiyCgAAQKuKBma5OuCXsZ2gWUWDfRsIIYQQJaK0AcDWA39gxpwAZL1+qXhhdVqyDgBkatfSx0qvnhjyk43i7SGEEEJEpnQBwJUEKUZODcCDvxK4K7S24gGATOumdbB5QX9KK0wIIUSlKU0A8Cb9PYZ6BuHs0VMo+PSR28Jr23AWAACAmkQCtz52WOFJaYUJIYSoJtEDgMLCQszyO4SNG3Yh910mP5WYteA0AJDRq1oFPhO6YNrw9qikwX35hBBCCF9EDQAOnk7AxBnr8Cq5mPS9XDJrzksAIFO/TnWsndUbvTp+z1sdhBBCCJdECQD+fvgCw6asR8KVayiEANWbNuM1AJChtMKEEEJUhaABwPucPIz5JQyHfovEx/wy0vdyybQZIBHm5D8N9aK0wr4eXaGvqylInYQQQghTggUAy7ecxnK/EGSlvxGiuq+ZNBUsAJCpbqCNpVN6YFx/SitMCCFE+fAeAJy7+g/cpgbiaRLD9L1cMmkieAAgQ2mFCSGEKCPeAoDk528xwisIF8/FoKDgEx9VyM+4sWgBgMzArs2wdpYzpRUmhBCiFHgJAMb77EJYyCHk5+ZyXTRjhjVroWW7tjh3TcQRiC/MH98Jv4xxgrZWZbGbQgghpALjNAAIPfwnps/biPRXr7gqkrUqWloYO3YgAuYOhIaGOsLP38aM1UfwMDlN7KbBrJY+Vnr2xNCelFaYEEKIODgJAOLuPIGbVxBu37jJRZsUoqauDofO9tixZgJMvxluz8v/iLU7LmLZ1nN4l5MvUgv/RWmFCSGEiEWhACDtbTbcZm/Hscgz+MR1+l4WLK3rIyxwKuxt65b6umevMuHtfwy7jl4XIgtBqSQA3PrYYbnnT6hppCNyawghhFQUrAKAgoIC+AQcReCmvXifmcVHuxjRr1YNPrNHYoZbJ0bXxd9NxoTFBxF/N4WnlslPr2oVzB/fGZ4j7CmtMCGEEN4xDgAizt/CRO8gpD55yleb5FapchUMHdoLm3yHsl5UV1hYiB2R8ZgTcBzP34gfzNSvUx1rZvZGbwdKK0wIIYQ/cgcAiQ9fwG3WFly7HAexDxCUSCRo0/4H7Fg7AfXqcJN2931OPpZsPgv/HReR/1HkbYugtMKEEEL4VWYA8D47H5MW7cGevcfwIV/8hXOm5mYIWjkRvR0a81L+w+Q38PKLRGT0XV7KZ0JDXQ2TBv+IRRO7UVphQgghnCo1AFgTcg5LV+9CRlq6kG0qlo6eHqZPHgTfyT0hkfCfWvfc1fuYvOwwEqXib2msbqCNJZO7Y/yANpRWmBBCCCeKDQCi/7yPsTODkXT/oRht+oq6ujr69O2Mrb+OhKGetqB1f/pUgA17L8M36DQyssRPakRphQkhhHDlqwAg+XkGxv4SijOnL6GgsEDMdgEAbGybYtuq8bBpaCpqO9LeZmPeuhPYcvAaCkRe/wAAA7o0xeoZvWFuYih2UwghhKgoSWFhYeGHDx8xy+8wtoREICc7R+w2oeZ3NbB20VgM691K7KZ85c6D55iw+BAuJ0jFbgo0K2tgpmtHSitMCCGEFUlY+LXC2YtD8eL5S7HbAi1tLbiPdoHfrL7QUOK98AdO38SsNUfx+FmG2E2BaU09rPTqiWE9W4rdFEIIISpEApP+oo9pq6mpo3u3dti6bBRMaqrGaXm5eR/hFxKFldujkJ37QezmoHXTOtg4ry9svzcTuymEEEJUgASmA0QNAKwb1MWWFePQ0a6emM1gLfnFW8xcfQT7Tol/DgIAuLq0wsa5fWlagBBCSKkkMB0oSgBgVM0QC2cOwdQRDmJUz7lrfz3BhMUHcfOfZ2I3BfePenOWIIkQQkj5pAaJBEJ+Va5SBeNH98HTqxvKTecPAK2b1cGNA17YunAAHepDCCFE6akVnUcnzJdDRzv8HR2AzYuHQlurEu//OGlKGvpOC4Xj6GAkJKbyXp9EIsHY/q3x4NgcTB/RAZU01HivkxBCCGFDgtqDeZ8CMDc3QdCysehh34jvqgAAGZk5CNx9Cb5Bp7/6vqtLK/jPcoaBnpYg7bj/+DU8lh7CuWsPBKnvc700BUAIIaQMEtQewlsAoK+vi1mT+mHuhK6CpO8FgLCIOPgGnYY0tfj0xQa6mvD16Ippw+0FaQ8AHI/5G15+kfjn8WtB6qMAgBBCSFkkqDOU8wBAXV0Ng/s7Yf38wTDUF+ZpOzo2CYuCziA6Lkmu11uYGCJkyc9wsLPiuWVFPn4sQODuGCwOPoPM93m81kUBACGEkLJIUGcYpwFAa7vG2Lp8FJrWN+Gy2BJJU9KwKPgMQiPiWF3v0MoKIUsGwcLUiOOWFe91+nvMCTiOkPBY3tIKUwBACCGkLBKYD+ekFzL+rjoCF43CwG4tuChOLouCziBg10VODurxHG6Phe5dBFsfcPNeKiYsPoRrt55wXjYFAIQQQsoigYViAYC2liamjuuNxZN7olIlYdL3hp+/DS+/yBLn+dky0NVEwGwXjHIR7gyCvcdvYLb/MSS/eMtZmRQAEEIIKYsEFiNZBQBqampw7t4GGxcOgUlNPa7bVayExFR4+UXKPc/PVosGJvCf7SzY+oDsnHys2B6FVSHRyM3/qHB5FAAQQggpC+sAwMrSFA/OL+O6PcXKyMzBouAzCNgVI0h9Mn0cG8N/trNg6wOGzN6N304mKFwOBQCEEELKogG22/OE2dWHwF0x8A06zck8P1PhUXcQHZcEz+EdMG1Ye8HWBxDuvM3KxfM3WXjxJgupLzPx/HUWMrJyoK6uhhqGVVGrmi6+q66LmkY6sKpdTezmcu59Tj7i7ybj2atMvE5/j7TMHLRtbo7ObeqL0h5pSlqJp2g2tzaukJ+xV2nvkPoqE89eZSHl5Vs8e5WJypXUoa+rBX0dTejraqJZfWOY1lKNg9LKkpGZU2LKdHNjA8EeuITwNisX6ZnZyMjKxbvsPFQ3rArj6nrQ19UUu2kAAA1I2GWrk7C8Tl7RsUlw89nH+Tw/UxlZufANOo3QiFj4enQVdH0AYS47Jx9nrt7H8Zi/cSImEU8Zrq1oZFkTndvUR88OjdCtXQOeWlm0CDQ9M0fu15vU0IO1RQ25Xpv09A12HonHmSv/4I+bj//zc+/RjoIEABmZObgQ/xDRsUmIjk1Cwj35snE6tLJCi4YmcLCzQkfbuqIGBW+zcnEjMYXRNfJMHb5Of48tB68iaP8Vudf/tLexQP/OzTCgazOYqVAwcCHuy/dAilwPcy0amBS9B1pZoWOruioRFGS+y8XJy/fwR4IU8XeTcemGtMTXalXRwHfV9WBWSx8/NKkNxx/qoYNtXehWrSJcgwFIUNeN1RRAPUsT3D+7lOv2QJqSBjef/bzP87Pl0MoK/rOd0aIh99scaQqAvb3Hb2DHkXicvHyPszJrGenAtY8dxvVvzfnogNOYYETFyv8eH9e/NbYsHFDqa85dvQ/foNOl3ngAYLabA1Z69ZS7bqbCIuIQfv42wqPuKFyWga4m+jg1QR+nJnBxbMxB65i5dP0R7F03MbrmTcwiGOlrF/uzh8lv4Lc9GmGRcazX+6hJJBjeqyWWTumO2t8ZsCqDb9GxSQiLLHofcDF626KBCTyH28PFsbHSjRKlvszE2h0XEHzgKt7n5CtUlk1DE3RqXR/9uzRFm2bmHLWwZKynACRq3I4AlJS+V9lExyXBZpC/4GmFSfH2Hr+BRcFncE/6ivOyX6S9w8rtUVi5PQr9OjXB/PGdYdPIlPN65FFYSs6Ijx8L4LPhJFZuj4JYZ3vLPr9cbcv9XG5WLkIj4hAaEQcLE0OVGIUrLutpemYOfgk4js0HrypcfkFhIXYciceOI/GYOrQ9lkzuBj0d5RhSDvvf34rrB7iEe6lw9dkHA11NeA7vgFHOtqKPCrzLzoO3/zFs2neFszJvJKbiRmIqVoddQL3a1TCity1GObeCuYkhZ3V8SYHDgLgTFhEHyx7LeOn8m1sbo6NtXc7LDf1fmxcFneG8bFK2yKg7aNpvDYbO2cNL5/+t38/dRsufAzDO9wCyFYzygeI7idKoqRX/+jcZ2XAYHYQVInb+X35++VyrI01Nh6vPPlh2X4ZoBqMnYrt8QwrrXis46fy/tW7PJbQdvh7SlDTOy2YiOjYJNgP94eqzj9fRW9mUrM0gf1HvvXuP30D9nis57fy/9eDpGyzcdBoW3ZfBcXQwLpcxsscG6+OAucjt/+Wbhusbh76OJkKWDELCwemIDvHA4YBRMDfmdrhM9ma07L4M4edvc1o2Kd77nHz09wqDy7RQ3H7wXPD6/+/3P9Gk3xr8qWACp9Ke6ItTUPDf19++/xw2A9ficoJUobawlZCYytvntzTS1HQ4jglG32mhyGCwjkIoX/5tj138G53GBuN1RjZv9d19+BItfw7AlWLWe/AtIzMHXn6RcBwTLPcaD07q/eLeK8RJr19asPEUhs7Zg+dvsgSrMzouCe1HbUQ/zzAkPX3DWbmijAB8PqaXpzfNQvcukJ6cC1cXu8/f6+PUBNJT87DQvQv0OR4uk6amo69nGBxHB4seiZdnj5LT0OrnAPx+Ttxg61FKGloPW4/fTii+XoN1G5LT0G7kBsaLHLkSGhELxzFBgt70vxUedQeWPfgdDVAkW/eJS4noMy0UeR8+cdegEqRn5sBpTDD+EWA0TCYhMRWOY4IF3579JWlquqCjAet2X8KSzWcFqas4h8/fRr2eKzBh8UFOylNgBID9GgCbQf6cLBD6Vkfbunh04hf4Tuxa4ty878SukJ6ci1HOtpzXHx2XJOqHoTx78OQ1fhyxAYkC3uDKMsR7N5b/33nB632XnYfuHlt5P1SqJG4+++Dms1+UrbnfysjKheOYYIRGxPJSPpuBTolEgtN//IOfJm7Dx08F3DeqBLn5H9F/+g5B6lKGAPBLvkGn4eazj9cRoUNnbmHaygjeymfi2StuRh/Y9+IKDAJwfeMwNzZA1DZ3RId4yLUwxEBPC6FLByNqmztn6wNkwUeAtwsn5ZF/3ZO+QruRGwUdcpPX3HUn4OUXyfg6RdYAjFlwQLCjpb/l5rOP9cFbfHLz2c/q78CH56+zMHj2LlHqvv3gOWasOsJrHaERsUoTAH4pNCIOjmOCeQkC0t5mY8zC/ZyXy4a6mgRrZ/XmpCxR1wAoSl9HE/6znCE9NY9V2l4HOytEh3ggZMkg1usDmAYfhJnkF2/RaWwwXqa9E7spJQrYFYOZq5nddNmuATh64S72n77J6FquKGvnLxOwKwaeSvCENnLuXkY5Hri2dudFPHjCT4Ao6/yVVcK9VF6CgKkrwvH2nXIEPOP6t+Zsm7cG20EAvhMBlWWUsy0CZrtwsg3P1cUOfRybIGBXDBYFyzeXpK+jCc/h9vCd2FXh+knx3mRkw3F0EFJeZordlFJpa1bCgK7NGF3DZgTgfU4+xvlyM/fHlLJ3/jKBuy+hRUOTr9b/KILNGoC4u8mc1K0I/50XsXFeP07LVPbOXybhXir6eoYhars7N+UlpmL3sRusrq1rZoT+nZtCW7MysnPz8SglDdKUdEhT01gtDNWqooHFk7qxaktxNFgP5Ys0ANDRti4CvF04T8RjoKcF34ld4erSCp5+kYgoZY0Cl8EHKdmIuXvwgIMVr9qaldCuhQWqG1ZFNYOq0NfRRPKLDDx9/haPUtLwSMGFm+GBrrwn7SgsBLYf/lOUaZCAnTGcdP7NrY3Rx6kJAKBFQxMY6BZ9fmSL+BLupZb6uZOXm89+WJgYCXaYF1u1jHTwXXVdVKmsgdRXmZyeCBoSHotfp/Tg7B4lO4hNUfo6mujj1BgWJkYw0NX6fB9PSExFRlYOpKlpCD9/R+Gn7ei4JHiujOBkSnbX0XjG14zuY4fxA9qgdbM6Jb7mVdo7nL16HxfiHuLM1X/wMLns+9D88Z1Rw0iHcXtKwj4RkMBTAObGBgjwdvl8A+GLhakRwgNdER1b9Ab6Mmc1X8EH+a+1Oy7ixCXFsvoN7t4CA7s2Q7/OTct8bXRsEg6fu411ey4xquPQ2pHo0taabRPlVlhYKMoC04TEVHitYn/jNzc2gOfwDkU3/RKmyL7sqDMycxAedRuh4XG4EP+Qdb19PUPx6MRcpQvSR/a2RR+nJujRviE0q2j85+d//fMMV/96jHW7L+FO0gvW9eTkfcT28FhMH9lBkeYCKPqbuCm41XPasPZwdbEr8d75bbAWfv42ws/fRlgk885XJnD3JTjYWSncZxw4/ZfcrzXS08LZrRPkShhWw0gHQ36ywZCfbAAUpQdfv+cyfjuZUGxGQZMaepg+sqP8DZeDBA0nsdro8n09E9w5Mpddpc1myf1a2VC753B7UT7MRU8/sfAcYc/ZsGJJKBVwkXvSV2jo7Mf6eiuzatixbDB+bGHB+NqHyW8wcenvOPXHP2W+dvviQXDrw+490XncZpy79kDu11uYGLI6F6POdwZoVLcmDPW0YaCrCSN9bTj+UE/uswAsuy9jVS8Xn9vw87fhuTKixMODyuLQykrhYeCY+Efo4MYsFXBxPIfb45exTqjJ4Olt6eaz8Nl4inWdPdo3wPFNY1lfL+O5MgKBu5kFxjIujo0RoMCJqtKUNLjO38c6GDTQ1VQoELx+NwW2gwPkfv2eFUM/d+hsvcvOQ2hEHJb/33mkvvp3+nPHr4Mxoje3u9eUfgSgRQMTUefZPUfYw3OEvWj1V0RjFVht6z6wDfxnuxT7dCWPumbVcDJ4HPYcu4FpK8NLnKdbO6s3684fYD63zKQTbm9jARfHJujergGa1P+OYcv+5bvpNKvOv7m1McIDXRVeFCs7A4BtBxQdl4Tw87cVegIsVDC/or6OJo5tHIN2NhaMr50/oSj1dH+vMFa5BC5dl6KwsFChe3VCYiqr372+jiZCl/6s8NO3hakRokM8EH7+Nlzn72M8NZCRlQtPvwiELh3Mqn5pqvzTg6Y19RTu/AFAR7sKJg9ph9F97LByexQWbz4Lm4YmnHf+gEKJgMTfBUDKn0NnbpV5mE1JAr1dEOTTn3Xn/6WhPW1w74g3enf8/j8/85nQGV4jFBtaZboLQB6NrWrhxKaxiAmbhJmuHRXq/KUpaXIviP1Sc2tjRG/ndkdMgLcLQpYMYnWtovPWEgXvczFhE1l1/jI9OzRCeKAbq2uzsvNw817xx+7Ki83vT19HE9HbPTidru3j1ATR2z1YJXELi4xnnSzq+Wv519w0szZmVUdJtLUqY9Gkbnh6Zj7rAKYs7LcBlpCbnBBFrNzOLrHOvlXDMXVYe07bYqSvjcj1bpjxxTzqxJ/bcroKlyvr5rjg9uGZ6N6emyOM2ZzLIev8+Ziqc3WxYxUESFPTFUoSpMgIQMBsZzStr3in0L19A8wcxW7u9+pf7NMDR8cmMc7rL+v8+Vgn1aKhCaQn57IKAthmCnz2Wv4dSGlv+dn6aVZLn/PgQkYpDgMiBCg6ejX2DvMtVDNHdcSgbs15aFGR1TN7I9inP0b0asn51ipFGepp4c89UzFlKHfBjzQljfHiK30dTYQHuvK6TsfVxQ4L3bswvk6RNLFsRwBaNjLFtOHcTR0untQNBrrMO74v55CZYvN7C/Dm56h0GQM9LURv92B8XXRcEqtRgOLO4CjJnQfPlfJsitKodCIgUr5sPXSN8TV2jc2wwvMnHlrztQkD22DHsiGclcfF56de7Wq4vs8Tdk1qc9Cif7HZ8hfgzX6hFxO+E7syzt4pTU1nfVhXAcupmtluDqyuK4mWZiWMcmZ+DPLLN+wSaCUkpjJ++ndxbMz7QmmgaCTAf5Yz4+vYjASZ1NCT+7XvcvIxbM4exnWIidYAEKWQl/8R+08xz3AXsuRnqKuLm5SKDUXXAFTWUMfhAMUX2hUnLJJZANDc2liQG79M6NKfmV8jYBIj05p6+Ll7C87LZbMI7HXGe1Z1seksA2Yz75TZ8hxhzzgQjIi6w/gJvY6xIaPXH7+UiPYjNyJVyZOXyaix7ftpDQDh0tELfyM3/yOjazq3qY/G9dgvdFNla2b1VmiRX0kSElMZr/wXepeMhakR48O82Nz8AXaBmrxbLJlq2cgUWgwXuL5gmTiKaRA4ytlW8FToTHeHZWTlIjyK2UiQuQmzAAAALidI0aD3SgTsjEGmkqQPLgmtASBKgelwIwDMcnXgviECUWQKoEf7Bpg8pB2HrfkX06Fyc2MDQZ/+ZXw9mG8NZnrzZ6tTa34CAIlEgh+alJxZrjhZLE6MLMrKx6zjYvP3UJSDnRXjUQCm6wCaWRujdi19RtcARdMBXqsiUcthEcYs2M/rkdWKUINEDWy+xD4LgJQvMQwTfVQ30EbXH/nPwMcXRaYA/Lx6cdiSrzFNxct3Zs6SWJga8X7zZ6uBRQ3eyq7D8tAyJpj+nsyNDUQ7CI3p+49Nqunhvdjvv8/NL8rI6DgmGHW6LMXM1UcQe/sp6/K4Rr04EV1BQSFuP3jO6Jq+ncpO71sedfvRmpehfxmm57uLmW+f6c1f0T3x8tLX5W8nBJNMgmwxHQUS8z3AtO6MrFxIGZ79McqF+eLL4jx98RZrdlzED0PXwcRpMaYuD8dFBdJdc4ECACVS9FTIxZdqSXr6Bp8YbLcBgJ/sG/LUGuU2282Rt7ITEpl1/kBRul2xML35Mw1u2GKzXU9eQgQAj58xWwMi1igQULQjgOlR7kzfBw0samDBhM6MrinLs9dZWL/3Mjq6BeE7h0WYseoIrtxkn7OBLQoAlEhhYWFRjlgFv/jIMsenh8nMT/xr0UC1D2RiswagrpkRnFrX46E1RZikPQWKhn7FPGyHzX5zpkEOm89SJQ11xtfIXXYl/sqWYboI1IDHEQ95WJgwm35gE+gumtQNTj/w89l7kfYOa3dexI8jNsCs8xLMW3cC6QLlE6AAQOlUvBEANm92Qz1tHloiHDYdSzsWhxsxwfTGyPTGqwwyslQrUYvQ2HSOqh6MyytinSvvn8GUl5lY9n/nYdl9GZb/33nk5H7gtT4KAJQIdyMAYv9LmMljuP1PAkCfx2FWZdWmmbnYTVA6TNPCUgBQOja/H7GPXGY6FcR2MaiOdhWc3+aOXh0asbqeibfvcjF33QlY917JKj+KvCgAUCKFDOfBywumQ6Z6LHKBlwdtm1MA8C2mT5/MpwAYvZyUc5UrqePIhtEImt8PhgIEPskv3uLnWbvgNCYYL9PYZXUsDQUASqQQFXMNQKO6NRm9numRoMqIzRoAm0amPLREtTE9J57PPPVEHGKM6rgPaotHJ+Zi+ogOqKpVmff6omKT0Hb4esY7GMpCAYASqai7AGpV02V8zTMFDjlRBkyDNEuR9lmXN2IvWCPcY7x2xZR5dr/i6OtqYs2s3kg954NV03sx3o3A1MPkNPwwdB0eM1ykWRoKAJRNBVwDYFJT/gM3ZPgYDlNmfG4tY6s8jMSQr1mwSH3LZuGgmLhevKqno4mZrh3x8MRchAe68pYKGgBepb/n9MAhCgCUSNEagIo3AgAARgzn05gmDlJ1Qjy5stlXL+bxp2wWc1WUFetsscnol3AvhYeWyO/mP+KMAHxLTU0CF8fGOLNlPJ6emY/VM3qhddM6nCfOv5wgReCuGE7KUvoA4EL8Q/SdFsr53Ic8MjJz4OazD5Jms7Ao6AzvNzvOdgGoYBDA9FCfs1fv89QS5SREAMCmDjZnOHCFzRG/TFesq9p6Gi40tzZm9Hox89xHxyYxPrdAiO2rZrX0MWNUR1zdPQVPzsxHwGxn2Le05Kx836DTyM1jtnuqOEofAABAeNQdWPZYLkgnLLMo6Awseyz7fIyob9BpWPZYhjAejxXlKgBQRUyfPk9eusdTS4TBdBGgEAFAi4YmjLfViXnzvxDHbAEg07MDKiqmowBM/w5cUoVRILNa+pg23B4XQyci5awP1szszTjI+lZGVi4n2wNVIgCQEaITjo5NgmX3ZfANOv2fyDIjKxeuPvvgODqYxxtfxZwCcGQYADx/k4Vrfz3hqTX8Y/pkqa4uzAmcTAOxsMg4UaYBpClpKnVugSphmt5ZmpouWiDI9Nji5tbGouYtMKmph+kjOyDh4HQkHPDC2H4/QLMysyOeZbYdvqZwe1QqAAD464SlKWlwHB0MxzHBZabCjI5LguOYYLj57ON0aqKgoICjEQDVO675xxYW0FBn9nb0DTrNU2sqLqY3/4ysXARwNB/JBJu/vZg561VJH6fGjK9ZFHSGh5aULjQilnHaYmUKAps3MMFW34FIOecD79HMz/i4GP9I4TaoXAAgw1UnnJGZAy+/y/VD4QAAFP5JREFUSFj2WM54PjM0Ig42g/w5e/NztQ1QFectq1TWQO+O3zO65uTleyo9CqCM2Nz8A3fHCDoKIE1JQ1hkPKNrzI0NWOUAUL1PkuIsTI2YrwOISxJ8FCAsgtl7AABcXex4aIlijPS1scLzJ0Rtc4dWFWajAU+eZShUt8oGADKKdMJhEXGw7LFMoSeYjKzcoqmJ7stYLUr6jwq6BgAAJgxsw/ia0Qv2MU4lTErG5uafkZULr1WRPLXov7z8mNdFT//MsOko3Xz2CRYIhkbEMn5ga25trNSJoBzsrOA92onRNfcfv1KoTlECAK4TJjDthKNjk2Az0B+uPvsYryAtiTQ1HX09w9BnWijrMrh6clfFEQAA6NauAeOEN3cfvsS0FRE8tehru45eV7k9z2x4jrBnfE1oRBwCdvI/FRCwMwbhUXcYX+c5nPm/qSJjMxIkuwfyLSExlVUQqOjTvxDBzdh+PzB6feb7PIXqEyUAkJ6ah4XuXRivOC6z3P+9AR1HBxd7o5ampKHvtFA4jgnm5Wzwhe5dELrkZ9bXV9TDgL40fkBrxtdsPngVoRGxPLTmX0ei72LE3L1wHBOE63fF3ffMN1cXO1ZButeqSF6HgRMSU1mNNIxytmW1v70iszA1wihnW8bXRcclwc1nHw8tKiLbms30wU1fRxOuLq1Y1/tHghSmnZcgeP8V1mXIw7SWPrQ1K8n9euMazLOofkm0KQDfiV2RcMCL1ZusLNFxSbAZ5A8vv0hkZOYgIzMHi4LOwGaQP6unh7J0tK2LRyd+ge/ErgqtMK2oqYC/NHlIO1Q3YH7U72if/dh5hPmcoDwCdsagr2cogKLRJscxQYi7k8xLXcrCc3gHVtc5jgnmJRgLjYiF45ggVtf6enTluDUVA9vfW2hEHC9BQEJiKuuHN8/h9qzvzbl5H+Hmsw/ZuR/gsfR39Jq0Ha94zESazeAIYJMa+grVJeoaAAtTI4QuHYyobe687NEN2BUDyx7LYDPIv9htfYoyNzZA1DZ3RId4cPOEUQiORgAKFG+LSHS0q2DVjF6MrysEMHLeb5xlyAKAR8lp6Dp+C7xWReLTFyc1Zr7Pg9OY4HK9ANFzhD3rqTo3n/2fg28uBO6KgZvPflafX0Wf/lV1Oo0LFqZGmDasPatrQyPiYDPQn7NdUtGxSXAcE8Sq8zc3NlBoCmjBxpP45/Hrz/9/LOZvNO67GjsYLkSVB9OHmDoKTqcrxSJABzsrRId4IGTJIF7WBzDdKlIWfR1N+M9yhvTUPE63lRRy8vSv+jcsVxc72DU2Y3Wtp18k7AYH4s9b7Dvn9zn5mBt4Ao1c/HCmhIyDWdl56DxuM67cfMy6HmUXunQw62sDdsXAZpC/Qjk7ZGt1PFnM9wJFn9OA2S6s6ydFowBsp2oT7qUqnMDty2lbtg9wAd4urJ/+r/31BKtCL/zn+6/S32PU/N9Qp8tSbPrtD+QweGovyZuMbMxac1Tu19evU13hOpUiAJBxdbFDwoHpWOjeReymlGiUsy2kJ+eyWihVlsJCbvIAqH4IAAT7DGB9bdzdZLQeth5dxm9BaEQs0uW8+cTfTcaU5eEwcVqM5dvOI+/Dp1Jf/y4nH53Hbcal649Yt1WZOdhZKTRFJ01Nh6vPPlh2X4bAXTFyPQ1KU9IQFhH3OSeHImt1Qpf+LGrSl/LAQE8LoUvZr2sC/k3g5uUXiQg5pmAzMnMQEXUHbj77YNljuULTtqOcbRXaAeI6/7dSf/70xVtMWnYYJp0WY/76k6wfCJ6/zkLXCVvwgsHUQv/OTVnV9SV2KYh4ZKCnBd+JXeHq0gqecr5hhNDRti4CvF143UZSNHJfHrpvxbX83hRbFw7AuEUHWZdx9ur9/50ZsB/2LS3RqG5NWJlVw/dWtaCjXQUAcDfpBaJiH+D8tQdIY/GUkp37AV0nbMHRDWPg1Loe67Yqq4DZLkhITMXNf56xLkOamg5Pv0h4+kXCwsQQFiZGaNHQ5Kv0xkU53XM4W5w7bVh72vrHkT5OTTBtWHsE7r7EugxZwqiAXTEw0NVEiwamsDA1/Covf0JiCjKycjk7X6K5tbFCI0BzAo4jUSrfNruMrFz8uvUcft16DjpaldGtXQN0/dEarZvWQfMSUg9n5+Tj5OV72H3sOn4/x3wLef8uzRhf8y2lCwBkLEyNEB7oiujYJHiujFDoBqQIc2MDBHi7CHIz+bwLgItyyoGx/Vvj7sMX8Odge1nM9UeI4elJPSfvI1ymhiD1/ALoVq3CSx1iKXoCHAyH0UGcHP8rTU0vSh3L4yFCza2NEeDNzdB/OfkoKSzA2wXRsUmc3Ic/d/L8ZXSHvo4mQpcOZj0CFHcnGSu3R7G69l1OPg6dvYVDZ299/l5dMyM0sqyFRnVrIvN9Lu4/fo0oBXbM1DUzQiuW06RfYj0FwGSloiIc7KyQcHA6QpYM4nzbYGn0dTSx0L0LpKfmCfYk8e59ToVOBFScNTN7o9uP1mI3o1SVNdRxcO3Ictf5y7RoaILo7R6Cfv7Yam5tjOjtHmI3o1yK3u6h8CE2QtDX0UT0dg/Wo7UfPn7CqHl7OW3Tw+Q0HIv5G6vDLmDLwWsKdf4AsHFuP07axToAuP/kNRo5++GcQMeyurrYQXpyLutVqUyMcrZFwgEv+E4UZvvQ1ZuP0aTHQlyJvQNuFgGq3lkAJZFIJIhY5wYXR+aJSYRQWUMdkevd0K1dA7GbwqsWDU0Q4O2s1EGArPOneX9+GOhpKX0QUPTk/7NCU7VqEgmG9WzJ+GwSoQz9yQbd23Nzv1HoX5gofYXO47fAZWoIHia/4aRBpTHQ00KAtwsenfiFl22DHW3rImqbO0KXDhYkcUjKi7foMzEI7fouwJ2/H3Lz9F/ORgCAonMCwgNdMXUo/8EfE1W1KleIzl/G1cVOaUcCqPMXhjIHAbInf0VHbNXV1TB3XCdc2TUF9WpX46h13LAwMcT6X/pwVh4nIU5k9F00cl6FOQHH8T4nn4siS2VhaoToEA9EbXPnZNugubEBQpYMQnSIhyCnRX348Aneq8PRwGkmIo5fRkHBJ3Dz5F/0VV7WAHwrcI4LNnD45ldEq+/NcPv3GRWm85eRTQcoUwcwytkWCQenU+cvEFkQwEcSN7ZkASCXi7RbNTbDrd9nwmuEPdQk4o+qGlfXRdQ2dxjpM0+UVhLOxjjyP37Cyu1RqPfTCoRFxAnSCTnYWUF6ah78Z7Efmlzo3gUJB6YLdkrUvuPXYW4/A37rD+L9uxwu+/3ykgagVJOGtMPfEbPQplkdUeqXAJg5qiOu7JpSYdPLtmhogoSD0wWZjiuNvo4mDgeMUihfQVnKazCtKNni0MMBo0QfEZo2rD0SDk7nZYeWZhUNrJ3ljIuhE2H7vSnn5curuoE2ordzlHDuC5xPcjx/kwVXn32wGxKI+LvCpEv1HGEP6cm5jCJSF8fGnKTvlddf/6Sidf9fMdhjDZ49ewV+en7ZCADv/xxRNbSsiT92TkawT39Bbz7N6hvj8s7JWDWjFzQ0lHN+UEgB3i6I2uYuymiALB8HbfUTVx+nJozvvVzpaFsXN/Z7cbbjozTtbCwQ95snLoVNQk/7RrzX96WfuzXHrd9nwtqiBudl83YXi7+bArvBgRg5dy+evcrkq5rPZBHpjf1epa4PaG5tjKht7ggPdBXkCS4jMwfDZmyHbXdv/Bl7u2izP89fFeGpRSKRYMLANnh0ci6WT+sBkxp6vNWlr6OJQG8X3DjghbbNzXmrRxV9uUuH6yyexRnlbIsb+70U2uJFuCW790ZtcxdksW5za+PPU7ZCH+/bzsYCRzeOxoNjc+AxqC20qvC3k/6HJrVxKWwSfls1HN9VV+zQn5LwmgegEMDOo0VJDuaOdcKMUR1RpTK/qQdaNDRBdIgHws/fhufKCDx+lgHgf2lBvZ0FG+ovLCzEr8GnsGrjIWRm8ndwREVnqKeFOWOcMGeME3YeiceGvZfx5+2nnJTdwdYSzg6NMbK3LWoY6XBSZnnl6mJXtEgwNgkBu2I4TeBlbmyAPk5N4DncvsJOu6gCBzuromnZlDQE7IpB+Pnbn++/itLX0UQfp8ZwdbETZJ1WWaxqV8Om+f2wZmZvXLrxCOeuPUB0bBKuKZCCHABMauhh6E82cHVphcb1vuOotSWToOlMwR4XLU2NsGZmb/TtJNywne+m08jIyoGvhzBD/QBw7MJdTJz7f3jyRJyz4+NOrYLt97VFqVsZJL94iwOnbyIm/hGu3XqCVDlHoBpZ1kSrxmawb1kX/bs05XSxTUWTkZmD6LgkRMcmMU4go6+jiRYNTOBgZ4U+Tk0Ef8r7UnpmDm4yzE6oDB2UskhITEX4+duIjk3ChfiHjK5tbm38OahQlamed9l5uBD3ELG3n+LZ60y8SnuP1xnv8TLtHV6nv8ebt9nQ19GEga4mDHS1UMNIBy0amMCmoSlsG5uhAQ/D/KURNACQ6WhbF8EL+qOhZU2hq+bVgyevMfaX7bhwkZ9jaeUVd2p1hQ4AvpX5LhcpLzOR+vItkl+8ReqrTFTSUIeRvhYM9bRR00gHNg1NoK1VWeymlmvSlLTPB3NJU9MgTSn67y87zBYNTGhovxzLyPw33XNGVg4SEov++8u0wBYmhjTSIxBRAgAAUFeTwH1QWyye1E3ln7Syc/Lh+esBhO09gfw8/rdBliX21Bq0akwBACGEkJKJtpT5U0EhNv72B+r3XIGNey/j0yfVPMM+cMcF1G4zGVtDw5Gflwc+V/eX9aWnp4sl80ajZSPxtqsQQghRDRL9tvMLuTjkQ1ENLWogeMEAdGzFfYY/PlyMTcL4OVtxL/GB2E2BhoYG+vd1QtDi4TDUU+3RFEIIIcKQvEp7Vzh33Qls+/1PFCjB9rG+Tk3gP9sZ5iaGYjelWMnPMzB+fhhOnbqEggLxf1+2tk2xffU4NLMWb6EUIYQQ1SMp/N+m8TsPnmPC4kO4nCAVuUlAlUrqmD6yI+aP76Q0C7M+fPiE2at+x+btEcjJZn5uPNdqflcD/kvGYWhP5UnHSQghRHV8DgBk9p+6iVlrjuLJc272byrCpIYeVnj+hOG9WkIiYi7mPcfi4TlvM169eCVaG2S0tLXhPrYvVs7si0qV1MVuDiGEEBX1nwAAAHLzPsIvJAort0chO/eDGO36iu33pti8YABsvzcTtN6b91LhNmMzbsT/JWi9xVFTU0PX7vbY+qsrzL7jP+MaIYSQ8q3YAEDm2atMzFh9BHtPJAjZpmJJAIx0toXf9F6oyXNWtrS32Rg/bwfCw8/g06dPvNYlD6v6VggNmIz2LS3FbgohhJByotQAQObaX08wYfFBRtm8+KKjVRnzJ3TG9JEdUEmD2yHwgoIC+G44Dv8Nv+FdZhanZbNhWM0I82eNwHRXJ7GbQgghpJyRKwAAinLbh4THYm7gCbxIEz+3vZVZNayZ1ZuzwyeORN2G++xNSH0izAmGpalUuTKGDu2FjQuHoqq2ciyCJIQQUr7IHQDIvM/Jx6Kg0wjcdQn5H8UfHlc0rXDS0zcY4RWEq5f+FP0UPYlEgjbtf8BOfw9Y1a4malsIIYSUb4wDAJmHyW/guTISRy7c5bpNjGmoq8FjUFssmdwd+rrynQ+fm/cBE3x2Ye+eI/iQL376XuM6Zgj2mwxnFTn0ghBCiGpjHQDInLt6H5OXHUaiVPwtctX0tbFkcndMGNgGamolbxtcE3IeS/3CkPHmtYCtK15VXX14ThmMxVN7QU1NtMzMhBBCKhiFAwAA+PSpABt/+wO+QaeRnil+kpzGVrWwecEAtLOx+Or7F2IfYNTUdXj8QPz0veoaGujp3BWhfqNhqOKHIRFCCFE9nAQAMmlvszF//UkE7b/CVZEK6d+5KdbM7I1K6uoYMT0Y0WcvoqBA/HULjVs0R1jAZNg2FjavASGEECLDaQAgc/v+c0xZHo7ouCSui2ZFM/MJct9lit0MGNSogdVLPTCmf1uxm0IIIaSC4yUAkPn97C3MXHMUj1LS+KpCPs//Bgo+ilZ9FS1tjB4zEIHzBlH6XkIIIUqB1wAAAPLyP2J16AUs33Ye73NEWm3//A7wSfgAQE1dHfadOmJP4ESY1NQTvH5CCCGkJLwHADLPXmVi9tpj2H3sOgTfbf/sjuAjAGZ16yFsgyecWlsLWi8hhBAiD8ECAJn4u8mYsPgg4u+mCFdp6h2gQJhDjXQMq2HenNGYM66rIPURQgghbAgeAABFaYV3RMbjl8DjePZagJz7qbd4nwLQqFwZ/Yf0QcgKN2hpVuK1LkIIIURRogQAMu9z8rF081n477yIvA88bs9LvQV84mcEQCKRoHmb1vht0zQ0sGCXjpgQQggRmqgBgMzj1HR4roxAeNQdfipI+YuXAKCaaW0E+0/HgK7NOS+bEEII4ZNSBAAyF+Iewn3xQe7TCqckcDoFUKWqHiZNGYFVs/tR+l5CCCEqSakCAKAorXDw/itYsPEU0rhKK5ycwMkiQDX1Sujcqzv2BLijmmFVDhpGCCGEiEPpAgCZt1m5mL/hJIL3X8HHTwWKFZacoPAUgFXT5ti9aTpaNzNXrC2EEEKIElDaAEAm8dFLuC8+hAvxD9kX8vQ66wBAt4YxVi6dAo8h7dnXTwghhCgZpQ8AZCKi7mDGqiNISn7D/GIWAYCGpjaGuw3B1l9HQEOD5vkJIYSULyoTAADAh4+fsHbHRfy65RyysvPkv/BJvNwBgERNDXYOjjgY7InaxgYsW0oIIYQoN5UKAGRepr2Dt/8xhEXEyZdW+EmsXAFATUtr7AiajW7tGincRkIIIUSZqWQAIBN/NxmTfj2Ma7eelP7Cx6UHAJoG1eDtPQG+U3py3EJCCCFEOal0ACCz+9h1ePsfQ8rLzOJf8DgW+PTfkwjVKlVBr4F9sTfQHdpalXluJSGEEKI8ykUAAADZOflYvu08VodeQG7+N0l/pNe+GgGQSCSwbtUGv2+bje+tvhO4pYQQQoj4yk0AIPM4NR0zVh/BobO3/v2m9OrnAEDP2Byb/GdiWG87kVpICCGEiK/cBQAyl29IMWHxQdxJegE8ugoNTS1MmOyGDQuHiN00QgghRHTlNgCQ2XzgKn4/egm7/d1R3UhH7OYQQgghSqHcBwCEEEII+S9KcUcIIYRUQBQAEEIIIRUQBQCEEEJIBfT/91IHZJ2z+S8AAAAASUVORK5CYII=;" vertex="1" parent="1">
          <mxGeometry x="277.85" y="479" width="146.8" height="41" as="geometry" />
        </mxCell>
      </root>
    </mxGraphModel>
  </diagram>
</mxfile>
